<svg width="434" height="46" viewBox="0 0 434 46" fill="none" xmlns="http://www.w3.org/2000/svg">
<g clip-path="url(#clip0_5_147)">
<mask id="mask0_5_147" style="mask-type:luminance" maskUnits="userSpaceOnUse" x="0" y="0" width="183" height="46">
<path d="M183 0.318604H0V45.3186H183V0.318604Z" fill="white"/>
</mask>
<g mask="url(#mask0_5_147)">
<path d="M113.298 13.556C112.621 13.556 112.007 13.4191 111.453 13.1467C110.899 12.8743 110.46 12.4636 110.136 11.9174C109.811 11.3712 109.648 10.6743 109.648 9.82802V4.14062H111.427V9.84048C111.427 10.2996 111.504 10.6854 111.657 10.9979C111.81 11.3104 112.03 11.5427 112.315 11.692C112.601 11.8427 112.941 11.9174 113.336 11.9174C113.732 11.9174 114.084 11.8427 114.371 11.692C114.656 11.5427 114.874 11.3104 115.022 10.9979C115.171 10.6854 115.247 10.2996 115.247 9.84048V4.14062H117.025V9.82664C117.025 10.6729 116.859 11.3698 116.525 11.916C116.192 12.4622 115.741 12.8729 115.175 13.1453C114.609 13.4191 113.982 13.5546 113.298 13.5546" fill="white"/>
<path d="M118.501 13.397V6.73202H120.069L120.188 7.82995C120.398 7.44277 120.69 7.13579 121.064 6.9104C121.437 6.685 121.882 6.573 122.401 6.573C122.955 6.573 123.419 6.68915 123.798 6.92284C124.176 7.15653 124.465 7.49393 124.667 7.93504C124.868 8.37615 124.97 8.91405 124.97 9.54875V13.397H123.192V9.70777C123.192 9.18785 123.078 8.78684 122.849 8.50475C122.62 8.22266 122.273 8.08162 121.808 8.08162C121.518 8.08162 121.257 8.15214 121.024 8.29318C120.791 8.43423 120.609 8.63473 120.477 8.8947C120.345 9.15466 120.278 9.47408 120.278 9.85297V13.397H118.501Z" fill="white"/>
<path d="M127.356 5.82063C127.03 5.82063 126.767 5.7266 126.565 5.53578C126.362 5.34633 126.262 5.10573 126.262 4.81534C126.262 4.52496 126.362 4.28435 126.565 4.09491C126.767 3.90547 127.03 3.81006 127.356 3.81006C127.681 3.81006 127.946 3.90409 128.153 4.09491C128.36 4.28435 128.463 4.52496 128.463 4.81534C128.463 5.10573 128.36 5.34633 128.153 5.53578C127.946 5.72522 127.681 5.82063 127.356 5.82063ZM126.46 6.73189H128.239V13.3969H126.46V6.73189Z" fill="white"/>
<path d="M131.597 13.397L129.16 6.73193H131.031L132.691 11.7183L134.337 6.73193H136.182L133.758 13.397H131.597Z" fill="white"/>
<path d="M139.938 13.5561C139.269 13.5561 138.68 13.4109 138.166 13.1191C137.652 12.8273 137.253 12.4249 136.967 11.9092C136.682 11.3934 136.539 10.8002 136.539 10.1309C136.539 9.46164 136.682 8.82141 136.967 8.29318C137.253 7.76358 137.651 7.34598 138.159 7.03623C138.669 6.72787 139.261 6.573 139.938 6.573C140.614 6.573 141.172 6.71819 141.664 7.00996C142.155 7.30034 142.537 7.69029 142.81 8.1798C143.083 8.6693 143.219 9.23071 143.219 9.86541C143.219 9.95391 143.216 10.0535 143.212 10.1627C143.208 10.2733 143.201 10.3853 143.193 10.5001H137.817V9.40218H141.427C141.4 8.98734 141.249 8.65271 140.972 8.39689C140.695 8.14108 140.355 8.01386 139.951 8.01386C139.644 8.01386 139.364 8.08715 139.115 8.23234C138.864 8.37753 138.665 8.5891 138.516 8.86704C138.366 9.14498 138.291 9.49482 138.291 9.91796V10.301C138.291 10.6619 138.359 10.9772 138.495 11.2468C138.632 11.5165 138.822 11.7253 139.068 11.8746C139.313 12.0239 139.6 12.0986 139.925 12.0986C140.25 12.0986 140.528 12.0309 140.735 11.894C140.942 11.7571 141.102 11.5745 141.216 11.345H143.021C142.906 11.7598 142.702 12.1359 142.407 12.4761C142.113 12.8149 141.757 13.0804 141.34 13.2698C140.922 13.4593 140.455 13.5547 139.938 13.5547" fill="white"/>
<path d="M144.465 13.3969V6.73186H146.046L146.205 7.94871C146.371 7.66662 146.575 7.42187 146.818 7.21445C147.059 7.00703 147.336 6.84801 147.648 6.73877C147.96 6.62815 148.305 6.57422 148.683 6.57422V8.46449H148.077C147.814 8.46449 147.57 8.49352 147.345 8.55022C147.122 8.60691 146.925 8.70924 146.758 8.85443C146.592 8.99962 146.464 9.18907 146.377 9.42276C146.289 9.65645 146.245 9.95375 146.245 10.316V13.3969H144.466H144.465Z" fill="white"/>
<path d="M152.358 13.5559C151.744 13.5559 151.214 13.4591 150.771 13.2655C150.328 13.0719 149.979 12.8051 149.724 12.4649C149.47 12.1261 149.325 11.7348 149.289 11.295H151.068C151.102 11.4541 151.174 11.6034 151.278 11.7445C151.384 11.8855 151.523 11.9961 151.7 12.0749C151.875 12.1538 152.086 12.1939 152.332 12.1939C152.579 12.1939 152.765 12.1607 152.919 12.0943C153.072 12.0279 153.186 11.938 153.262 11.8233C153.336 11.7085 153.374 11.5896 153.374 11.4665C153.374 11.2812 153.318 11.1402 153.208 11.0434C153.098 10.9466 152.942 10.8622 152.74 10.7917C152.537 10.7212 152.292 10.659 152.003 10.6064C151.686 10.5442 151.377 10.4681 151.074 10.3755C150.771 10.2829 150.501 10.1639 150.264 10.0187C150.027 9.87355 149.839 9.6924 149.698 9.47669C149.558 9.26097 149.487 8.98995 149.487 8.66361C149.487 8.27643 149.594 7.92243 149.803 7.60578C150.014 7.28774 150.324 7.03745 150.731 6.85216C151.139 6.66687 151.62 6.57422 152.174 6.57422C152.981 6.57422 153.619 6.75536 154.084 7.11627C154.55 7.47856 154.827 7.97636 154.914 8.61106H153.241C153.189 8.3995 153.072 8.23633 152.891 8.12156C152.711 8.00678 152.471 7.95009 152.174 7.95009C151.876 7.95009 151.627 8.00817 151.456 8.12156C151.285 8.23633 151.2 8.38152 151.2 8.55852C151.2 8.68158 151.255 8.79221 151.364 8.889C151.474 8.9858 151.63 9.07015 151.832 9.14067C152.033 9.21119 152.28 9.27757 152.569 9.33841C153.079 9.44488 153.526 9.56518 153.912 9.70208C154.299 9.83898 154.602 10.0326 154.821 10.2842C155.04 10.5359 155.151 10.8996 155.151 11.3753C155.151 11.7984 155.036 12.1759 154.808 12.5064C154.579 12.8369 154.257 13.0954 153.839 13.2793C153.422 13.4646 152.929 13.5573 152.357 13.5573" fill="white"/>
<path d="M157.379 5.82063C157.054 5.82063 156.791 5.7266 156.588 5.53578C156.386 5.34633 156.285 5.10573 156.285 4.81534C156.285 4.52496 156.386 4.28435 156.588 4.09491C156.789 3.90547 157.054 3.81006 157.379 3.81006C157.704 3.81006 157.97 3.90409 158.177 4.09491C158.383 4.28435 158.487 4.52496 158.487 4.81534C158.487 5.10573 158.383 5.34633 158.177 5.53578C157.97 5.72522 157.704 5.82063 157.379 5.82063ZM156.484 6.73189H158.262V13.3969H156.484V6.73189Z" fill="white"/>
<path d="M162.794 13.556C162.188 13.556 161.645 13.4066 161.167 13.1066C160.689 12.8065 160.313 12.393 160.041 11.8634C159.768 11.3338 159.633 10.7392 159.633 10.0783C159.633 9.4173 159.769 8.7978 160.041 8.27372C160.313 7.74965 160.695 7.33481 161.187 7.0306C161.678 6.72639 162.228 6.57428 162.833 6.57428C163.316 6.57428 163.735 6.66278 164.091 6.83839C164.446 7.01539 164.734 7.26567 164.954 7.59201V3.87646H166.733V13.3983H165.151L164.954 12.4719C164.814 12.6751 164.644 12.8577 164.447 13.0208C164.25 13.184 164.018 13.314 163.749 13.4108C163.482 13.5076 163.162 13.556 162.794 13.556ZM163.216 11.9962C163.575 11.9962 163.888 11.9146 164.151 11.7514C164.414 11.5883 164.621 11.3615 164.77 11.0711C164.919 10.7807 164.994 10.4405 164.994 10.0534C164.994 9.66619 164.92 9.33986 164.77 9.04809C164.621 8.75771 164.412 8.5323 164.144 8.37328C163.877 8.21426 163.563 8.13546 163.202 8.13546C162.869 8.13546 162.567 8.21704 162.3 8.38021C162.031 8.54338 161.823 8.77014 161.674 9.06053C161.526 9.35091 161.45 9.68141 161.45 10.052C161.45 10.4226 161.524 10.7766 161.674 11.0642C161.823 11.3504 162.033 11.5772 162.3 11.7445C162.567 11.9118 162.873 11.9962 163.216 11.9962Z" fill="white"/>
<path d="M170.499 13.556C169.955 13.556 169.502 13.4661 169.143 13.285C168.783 13.1038 168.512 12.8618 168.332 12.5576C168.152 12.2534 168.062 11.916 168.062 11.5454C168.062 11.1306 168.166 10.7697 168.372 10.4613C168.579 10.153 168.893 9.91235 169.315 9.74088C169.736 9.56941 170.272 9.48368 170.922 9.48368H172.542C172.542 9.14905 172.501 8.87526 172.417 8.66369C172.333 8.45212 172.198 8.2931 172.009 8.18801C171.821 8.08154 171.573 8.02899 171.265 8.02899C170.932 8.02899 170.648 8.09951 170.415 8.24056C170.183 8.3816 170.039 8.607 169.987 8.91536H168.261C168.305 8.43 168.461 8.01655 168.729 7.67223C168.996 7.32792 169.353 7.05966 169.797 6.86607C170.24 6.67248 170.734 6.57568 171.279 6.57568C171.903 6.57568 172.445 6.67939 172.906 6.88681C173.368 7.09423 173.719 7.39844 173.96 7.79945C174.201 8.20046 174.322 8.6872 174.322 9.26105V13.3997H172.833L172.635 12.382C172.538 12.559 172.421 12.7166 172.286 12.8577C172.15 12.9987 171.991 13.1218 171.812 13.2283C171.632 13.3334 171.438 13.4149 171.225 13.473C171.015 13.5297 170.774 13.5588 170.501 13.5588M170.935 12.1801C171.154 12.1801 171.353 12.1386 171.534 12.0543C171.714 11.9699 171.87 11.8538 172.002 11.7044C172.135 11.5551 172.239 11.3864 172.318 11.2025C172.396 11.0172 172.45 10.8153 172.476 10.5941V10.5802H171.119C170.838 10.5802 170.612 10.6134 170.442 10.6798C170.271 10.7462 170.145 10.8402 170.067 10.9646C169.988 11.0877 169.948 11.2288 169.948 11.3878C169.948 11.5551 169.988 11.6989 170.067 11.8178C170.145 11.9367 170.262 12.0266 170.415 12.0889C170.568 12.1511 170.743 12.1815 170.936 12.1815" fill="white"/>
<path d="M178.72 13.556C178.114 13.556 177.571 13.4066 177.093 13.1066C176.615 12.8065 176.239 12.393 175.966 11.8634C175.694 11.3338 175.559 10.7392 175.559 10.0783C175.559 9.4173 175.695 8.7978 175.966 8.27372C176.239 7.74965 176.621 7.33481 177.112 7.0306C177.604 6.72639 178.154 6.57428 178.759 6.57428C179.242 6.57428 179.661 6.66278 180.016 6.83839C180.372 7.01539 180.66 7.26567 180.88 7.59201V3.87646H182.659V13.3983H181.077L180.88 12.4719C180.74 12.6751 180.57 12.8577 180.373 13.0208C180.176 13.184 179.943 13.314 179.675 13.4108C179.408 13.5076 179.088 13.556 178.72 13.556ZM179.142 11.9962C179.501 11.9962 179.814 11.9146 180.077 11.7514C180.34 11.5883 180.547 11.3615 180.696 11.0711C180.844 10.7807 180.92 10.4405 180.92 10.0534C180.92 9.66619 180.846 9.33986 180.696 9.04809C180.547 8.75771 180.337 8.5323 180.07 8.37328C179.803 8.21426 179.489 8.13546 179.128 8.13546C178.794 8.13546 178.493 8.21704 178.226 8.38021C177.957 8.54338 177.749 8.77014 177.6 9.06053C177.451 9.35091 177.376 9.68141 177.376 10.052C177.376 10.4226 177.45 10.7766 177.6 11.0642C177.749 11.3504 177.958 11.5772 178.226 11.7445C178.493 11.9118 178.799 11.9962 179.142 11.9962Z" fill="white"/>
<path d="M111.875 27.5332V19.7177H109.188V18.2769H116.341V19.7177H113.654V27.5332H111.875Z" fill="white"/>
<path d="M119.344 27.6923C118.676 27.6923 118.086 27.5471 117.572 27.2553C117.058 26.965 116.659 26.5612 116.374 26.0454C116.089 25.5296 115.945 24.9364 115.945 24.2671C115.945 23.5979 116.089 22.9576 116.374 22.4294C116.659 21.8998 117.057 21.4822 117.565 21.1725C118.075 20.8641 118.667 20.7092 119.344 20.7092C120.02 20.7092 120.578 20.8544 121.07 21.1462C121.562 21.4366 121.943 21.8265 122.216 22.316C122.489 22.8055 122.625 23.3669 122.625 24.0016C122.625 24.0901 122.622 24.1897 122.618 24.2989C122.614 24.4096 122.607 24.5216 122.599 24.6363H117.224V23.5384H120.833C120.807 23.1236 120.655 22.7889 120.378 22.5331C120.101 22.2773 119.761 22.1501 119.358 22.1501C119.05 22.1501 118.771 22.2234 118.521 22.3686C118.271 22.5138 118.071 22.7253 117.922 23.0033C117.772 23.2812 117.698 23.6311 117.698 24.0542V24.4372C117.698 24.7981 117.765 25.1134 117.901 25.383C118.038 25.6527 118.228 25.8615 118.475 26.0108C118.72 26.1602 119.006 26.2348 119.331 26.2348C119.656 26.2348 119.935 26.1671 120.141 26.0302C120.348 25.8933 120.508 25.7108 120.622 25.4812H122.427C122.312 25.8961 122.109 26.2722 121.814 26.6123C121.519 26.9511 121.164 27.2166 120.746 27.4061C120.329 27.5955 119.862 27.6909 119.344 27.6909" fill="white"/>
<path d="M127.093 27.6921C126.424 27.6921 125.832 27.5428 125.314 27.2427C124.796 26.9427 124.391 26.5334 124.102 26.0134C123.813 25.4935 123.668 24.9031 123.668 24.2407C123.668 23.5355 123.813 22.9201 124.102 22.3961C124.391 21.872 124.796 21.4599 125.314 21.1599C125.832 20.8598 126.424 20.7104 127.093 20.7104C127.944 20.7104 128.66 20.9331 129.24 21.3783C129.82 21.8236 130.189 22.4389 130.346 23.223H128.462C128.383 22.9229 128.221 22.6837 127.974 22.5025C127.728 22.3214 127.43 22.2315 127.079 22.2315C126.772 22.2315 126.497 22.3103 126.255 22.4694C126.014 22.6284 125.825 22.8524 125.689 23.1442C125.552 23.4345 125.485 23.7871 125.485 24.202C125.485 24.502 125.525 24.7745 125.603 25.022C125.682 25.2695 125.792 25.4755 125.933 25.6428C126.073 25.8102 126.24 25.9401 126.433 26.0328C126.626 26.1254 126.842 26.1711 127.079 26.1711C127.316 26.1711 127.516 26.131 127.704 26.0522C127.893 25.9733 128.053 25.8586 128.185 25.7078C128.317 25.5585 128.41 25.3815 128.462 25.1782H130.346C130.188 25.936 129.817 26.5444 129.233 27.0035C128.649 27.4626 127.936 27.6908 127.093 27.6908" fill="white"/>
<path d="M131.662 27.5333V20.8682H133.229L133.348 21.9662C133.558 21.579 133.85 21.272 134.224 21.0466C134.597 20.8212 135.042 20.7092 135.561 20.7092C136.115 20.7092 136.579 20.8268 136.958 21.0591C137.336 21.2928 137.625 21.6302 137.828 22.0713C138.029 22.5124 138.131 23.0503 138.131 23.685V27.5333H136.352V23.844C136.352 23.3241 136.238 22.9231 136.009 22.641C135.78 22.3589 135.433 22.2178 134.968 22.2178C134.678 22.2178 134.417 22.2884 134.184 22.4294C133.951 22.5705 133.769 22.771 133.637 23.0309C133.505 23.2909 133.439 23.6103 133.439 23.9892V27.5333H131.66H131.662Z" fill="white"/>
<path d="M142.73 27.6922C142.089 27.6922 141.516 27.5443 141.01 27.2497C140.505 26.9538 140.105 26.5445 139.812 26.0204C139.517 25.4964 139.371 24.8948 139.371 24.2159C139.371 23.5369 139.518 22.9092 139.812 22.3851C140.105 21.861 140.508 21.4503 141.017 21.1544C141.527 20.8585 142.101 20.7119 142.743 20.7119C143.385 20.7119 143.956 20.8599 144.456 21.1544C144.957 21.4503 145.354 21.8582 145.647 22.3782C145.942 22.8981 146.088 23.5065 146.088 24.2034C146.088 24.9004 145.941 25.4977 145.647 26.0218C145.352 26.5459 144.953 26.9566 144.449 27.2511C143.943 27.547 143.37 27.6936 142.73 27.6936M142.73 26.1449C143.011 26.1449 143.267 26.0716 143.5 25.9264C143.732 25.7812 143.921 25.5627 144.066 25.2723C144.21 24.982 144.283 24.6238 144.283 24.2007C144.283 23.7776 144.213 23.4097 144.073 23.1235C143.932 22.8373 143.748 22.6215 143.519 22.475C143.29 22.3298 143.035 22.2565 142.754 22.2565C142.473 22.2565 142.201 22.3298 141.964 22.475C141.727 22.6202 141.538 22.8359 141.397 23.1235C141.257 23.4097 141.187 23.7693 141.187 24.2007C141.187 24.6321 141.254 24.9806 141.391 25.2723C141.527 25.5627 141.713 25.7812 141.95 25.9264C142.187 26.0716 142.446 26.1449 142.727 26.1449" fill="white"/>
<path d="M149.185 18.0112H147.406V27.5331H149.185V18.0112Z" fill="white"/>
<path d="M153.859 27.6922C153.218 27.6922 152.645 27.5442 152.139 27.2497C151.634 26.9551 151.234 26.5445 150.941 26.0204C150.646 25.4963 150.5 24.8948 150.5 24.2158C150.5 23.5369 150.647 22.9091 150.941 22.385C151.236 21.861 151.636 21.4503 152.146 21.1544C152.656 20.8584 153.23 20.7119 153.872 20.7119C154.514 20.7119 155.085 20.8598 155.585 21.1544C156.085 21.4503 156.483 21.8582 156.776 22.3781C157.071 22.898 157.217 23.5065 157.217 24.2034C157.217 24.9003 157.07 25.4977 156.776 26.0218C156.481 26.5458 156.082 26.9565 155.578 27.2511C155.072 27.547 154.499 27.6936 153.859 27.6936M153.859 26.1448C154.14 26.1448 154.397 26.0715 154.629 25.9264C154.861 25.7812 155.05 25.5627 155.195 25.2723C155.339 24.9819 155.412 24.6238 155.412 24.2006C155.412 23.7775 155.342 23.4097 155.202 23.1234C155.061 22.8372 154.877 22.6215 154.648 22.4749C154.419 22.3297 154.164 22.2564 153.883 22.2564C153.602 22.2564 153.33 22.3297 153.093 22.4749C152.856 22.6201 152.667 22.8358 152.526 23.1234C152.386 23.4097 152.316 23.7692 152.316 24.2006C152.316 24.6321 152.383 24.9805 152.52 25.2723C152.656 25.5627 152.842 25.7812 153.079 25.9264C153.316 26.0715 153.575 26.1448 153.856 26.1448M152.488 20.2998L152.329 19.123L155.214 17.4568L155.411 18.8188L152.486 20.2998H152.488Z" fill="white"/>
<path d="M160.973 30.6017C160.341 30.6017 159.787 30.5242 159.313 30.3708C158.839 30.2159 158.472 29.9822 158.213 29.6697C157.954 29.3572 157.824 28.9714 157.824 28.5123C157.824 28.1956 157.903 27.8997 158.061 27.6259C158.22 27.3521 158.452 27.1032 158.76 26.8792C159.067 26.6538 159.444 26.463 159.892 26.304L160.564 27.1903C160.161 27.3231 159.87 27.4904 159.695 27.6923C159.519 27.8942 159.432 28.1057 159.432 28.327C159.432 28.5289 159.498 28.7017 159.629 28.8428C159.761 28.9838 159.946 29.0875 160.183 29.1539C160.42 29.2203 160.679 29.2535 160.96 29.2535C161.241 29.2535 161.487 29.2175 161.697 29.147C161.907 29.0765 162.073 28.9755 162.191 28.8428C162.31 28.71 162.369 28.5469 162.369 28.3533C162.369 28.1058 162.283 27.9108 162.113 27.7656C161.942 27.6204 161.606 27.5291 161.104 27.4946C160.665 27.46 160.269 27.4061 159.918 27.3355C159.567 27.265 159.261 27.1862 159.002 27.0977C158.743 27.0092 158.521 26.9083 158.337 26.7935C158.152 26.6787 158.003 26.5639 157.889 26.4492V26.145L159.298 24.6239L160.577 25.0332L158.917 26.6732L159.43 25.7868C159.519 25.849 159.611 25.9057 159.707 25.9583C159.804 26.0108 159.922 26.0551 160.063 26.091C160.203 26.127 160.385 26.1602 160.61 26.1906C160.834 26.221 161.121 26.2542 161.472 26.2902C162.06 26.3344 162.541 26.4409 162.914 26.6082C163.288 26.7755 163.559 27.0009 163.731 27.283C163.902 27.5651 163.987 27.9094 163.987 28.3146C163.987 28.7197 163.88 29.082 163.665 29.4249C163.45 29.7692 163.121 30.0513 162.677 30.2712C162.234 30.4911 161.665 30.6017 160.971 30.6017M160.986 25.5628C160.432 25.5628 159.954 25.4549 159.549 25.2392C159.144 25.0235 158.835 24.7331 158.62 24.3667C158.406 24.0003 158.298 23.5937 158.298 23.1429C158.298 22.6921 158.406 22.2856 158.62 21.9192C158.835 21.5541 159.143 21.261 159.542 21.0397C159.942 20.8199 160.422 20.7092 160.984 20.7092C161.546 20.7092 162.013 20.8199 162.414 21.0397C162.814 21.2596 163.118 21.5527 163.33 21.9192C163.541 22.2856 163.646 22.6935 163.646 23.1429C163.646 23.5923 163.541 24.0003 163.33 24.3667C163.12 24.7331 162.814 25.0235 162.414 25.2392C162.015 25.4549 161.538 25.5628 160.984 25.5628M160.986 24.2008C161.329 24.2008 161.603 24.1123 161.81 23.9367C162.016 23.761 162.119 23.4955 162.119 23.1429C162.119 22.7903 162.016 22.5387 161.81 22.363C161.603 22.186 161.329 22.0989 160.986 22.0989C160.643 22.0989 160.364 22.1874 160.15 22.363C159.935 22.54 159.827 22.8 159.827 23.1429C159.827 23.4859 159.933 23.7597 160.144 23.9367C160.355 24.1136 160.636 24.2008 160.987 24.2008M162.08 22.1252L161.79 20.8696H164.53V21.9275L162.08 22.1252Z" fill="white"/>
<path d="M166.691 19.9556C166.366 19.9556 166.103 19.8616 165.901 19.6708C165.698 19.4813 165.598 19.2407 165.598 18.9504C165.598 18.66 165.698 18.4194 165.901 18.2299C166.102 18.0405 166.366 17.9451 166.691 17.9451C167.017 17.9451 167.282 18.0405 167.489 18.2299C167.696 18.4194 167.799 18.66 167.799 18.9504C167.799 19.2407 167.696 19.4813 167.489 19.6708C167.282 19.8602 167.017 19.9556 166.691 19.9556ZM165.796 20.8683H167.574V27.5333H165.796V20.8683Z" fill="white"/>
<path d="M172.37 27.6921C171.702 27.6921 171.109 27.5428 170.591 27.2427C170.074 26.9427 169.669 26.5334 169.379 26.0134C169.09 25.4935 168.945 24.9031 168.945 24.2407C168.945 23.5355 169.09 22.9201 169.379 22.3961C169.669 21.872 170.074 21.4599 170.591 21.1599C171.109 20.8598 171.702 20.7104 172.37 20.7104C173.221 20.7104 173.938 20.9331 174.518 21.3783C175.098 21.8236 175.467 22.4389 175.624 23.223H173.739C173.661 22.9229 173.498 22.6837 173.252 22.5025C173.005 22.3214 172.707 22.2315 172.356 22.2315C172.049 22.2315 171.775 22.3103 171.532 22.4694C171.291 22.6284 171.103 22.8524 170.966 23.1442C170.83 23.4345 170.762 23.7871 170.762 24.202C170.762 24.502 170.802 24.7745 170.881 25.022C170.959 25.2695 171.07 25.4755 171.21 25.6428C171.351 25.8102 171.517 25.9401 171.71 26.0328C171.903 26.1254 172.119 26.1711 172.356 26.1711C172.593 26.1711 172.793 26.131 172.982 26.0522C173.17 25.9733 173.33 25.8586 173.462 25.7078C173.595 25.5585 173.687 25.3815 173.739 25.1782H175.624C175.465 25.936 175.095 26.5444 174.511 27.0035C173.927 27.4626 173.213 27.6908 172.37 27.6908" fill="white"/>
<path d="M179.179 27.6922C178.635 27.6922 178.182 27.6023 177.822 27.4212C177.463 27.24 177.193 26.9981 177.012 26.6938C176.832 26.3896 176.742 26.0522 176.742 25.6816C176.742 25.2668 176.846 24.9059 177.052 24.5975C177.259 24.2892 177.573 24.0486 177.994 23.8771C178.416 23.7056 178.952 23.6199 179.602 23.6199H181.222C181.222 23.2853 181.181 23.0115 181.097 22.7999C181.013 22.5884 180.878 22.4293 180.689 22.3242C180.5 22.2178 180.252 22.1652 179.945 22.1652C179.612 22.1652 179.328 22.2357 179.095 22.3768C178.862 22.5178 178.719 22.7432 178.667 23.0516H176.941C176.985 22.5662 177.14 22.1528 177.409 21.8085C177.676 21.4642 178.033 21.1959 178.477 21.0023C178.92 20.8087 179.413 20.7119 179.959 20.7119C180.583 20.7119 181.124 20.8156 181.586 21.023C182.047 21.2305 182.398 21.5347 182.64 21.9357C182.881 22.3367 183.002 22.8234 183.002 23.3973V27.536H181.513L181.316 26.5182C181.219 26.6952 181.102 26.8529 180.967 26.9939C180.831 27.135 180.672 27.258 180.493 27.3645C180.313 27.4696 180.119 27.5512 179.906 27.6093C179.696 27.6659 179.455 27.695 179.182 27.695M179.614 26.3163C179.833 26.3163 180.033 26.2749 180.214 26.1905C180.394 26.1062 180.55 25.99 180.682 25.8407C180.814 25.6913 180.919 25.5226 180.997 25.3387C181.076 25.1534 181.13 24.9515 181.156 24.7303V24.7165H179.799C179.518 24.7165 179.292 24.7497 179.121 24.816C178.95 24.8824 178.825 24.9764 178.747 25.1009C178.668 25.2239 178.628 25.365 178.628 25.524C178.628 25.6913 178.668 25.8351 178.747 25.9541C178.825 26.073 178.942 26.1629 179.095 26.2251C179.248 26.2873 179.423 26.3177 179.616 26.3177" fill="white"/>
<path d="M112.638 41.8284C112.032 41.8284 111.489 41.6791 111.011 41.379C110.532 41.079 110.157 40.6655 109.884 40.1359C109.612 39.6063 109.477 39.0117 109.477 38.3507C109.477 37.6897 109.613 37.0703 109.884 36.5462C110.157 36.0221 110.539 35.6073 111.03 35.3031C111.522 34.9988 112.072 34.8467 112.677 34.8467C113.16 34.8467 113.579 34.9352 113.934 35.1109C114.29 35.2878 114.578 35.5381 114.798 35.8645V32.1489H116.577V41.6708H114.995L114.798 40.7443C114.658 40.9476 114.488 41.1301 114.291 41.2933C114.094 41.4565 113.861 41.5864 113.593 41.6832C113.325 41.78 113.006 41.8284 112.638 41.8284ZM113.06 40.2673C113.419 40.2673 113.732 40.1857 113.995 40.0225C114.258 39.8593 114.465 39.6326 114.614 39.3422C114.762 39.0518 114.838 38.7116 114.838 38.3244C114.838 37.9373 114.764 37.6095 114.614 37.3192C114.465 37.0288 114.255 36.8034 113.988 36.6444C113.721 36.4853 113.407 36.4065 113.046 36.4065C112.712 36.4065 112.411 36.4881 112.144 36.6513C111.875 36.8144 111.667 37.0412 111.518 37.3316C111.369 37.6234 111.294 37.9525 111.294 38.3231C111.294 38.6937 111.368 39.0476 111.518 39.3353C111.667 39.6215 111.876 39.8483 112.144 40.0156C112.411 40.1829 112.717 40.2673 113.06 40.2673Z" fill="white"/>
<path d="M121.293 41.8285C120.625 41.8285 120.035 41.6833 119.521 41.3916C119.008 41.1012 118.608 40.6974 118.323 40.1816C118.038 39.6659 117.895 39.0726 117.895 38.4034C117.895 37.7341 118.038 37.0939 118.323 36.5656C118.608 36.036 119.006 35.6184 119.515 35.3087C120.024 35.0003 120.617 34.8455 121.293 34.8455C121.969 34.8455 122.527 34.9907 123.019 35.2824C123.511 35.5728 123.892 35.9627 124.165 36.4523C124.438 36.9418 124.574 37.5032 124.574 38.1379C124.574 38.2264 124.572 38.3259 124.567 38.4352C124.563 38.5458 124.556 38.6578 124.548 38.7726H119.173V37.6746H122.782C122.756 37.2598 122.604 36.9252 122.328 36.6694C122.051 36.4135 121.71 36.2863 121.307 36.2863C121 36.2863 120.72 36.3596 120.471 36.5048C120.221 36.65 120.02 36.8616 119.871 37.1395C119.721 37.4174 119.647 37.7673 119.647 38.1904V38.5734C119.647 38.9344 119.714 39.2496 119.851 39.5193C119.987 39.7889 120.177 39.9977 120.424 40.1471C120.669 40.2964 120.955 40.3711 121.281 40.3711C121.606 40.3711 121.884 40.3033 122.091 40.1664C122.297 40.0295 122.457 39.847 122.571 39.6175H124.376C124.262 40.0323 124.058 40.4084 123.763 40.7486C123.468 41.0874 123.113 41.3528 122.695 41.5423C122.278 41.7317 121.811 41.8271 121.293 41.8271" fill="white"/>
<path d="M128.75 41.6695V32.4131H132.53C133.171 32.4131 133.712 32.514 134.15 32.7173C134.59 32.9206 134.92 33.1999 135.145 33.5566C135.369 33.9134 135.481 34.3255 135.481 34.7929C135.481 35.2602 135.382 35.653 135.185 35.9696C134.988 36.2877 134.722 36.531 134.387 36.7039C134.054 36.8753 133.693 36.9749 133.307 37.0012L133.504 36.856C133.926 36.874 134.302 36.986 134.631 37.1934C134.96 37.4008 135.219 37.676 135.408 38.0203C135.597 38.3646 135.692 38.7393 135.692 39.1445C135.692 39.6381 135.576 40.0751 135.343 40.454C135.11 40.8329 134.767 41.1302 134.315 41.3473C133.864 41.563 133.313 41.6708 132.662 41.6708H128.75V41.6695ZM130.528 36.2738H132.241C132.706 36.2738 133.062 36.1673 133.308 35.9558C133.554 35.7442 133.678 35.4442 133.678 35.057C133.678 34.6698 133.555 34.3808 133.308 34.1651C133.062 33.9494 132.702 33.8415 132.228 33.8415H130.528V36.2752V36.2738ZM130.528 40.2148H132.385C132.859 40.2148 133.228 40.1041 133.492 39.8843C133.755 39.6644 133.887 39.3464 133.887 38.9315C133.887 38.5167 133.751 38.1931 133.478 37.9594C133.205 37.7257 132.833 37.6096 132.358 37.6096H130.527V40.2148H130.528Z" fill="white"/>
<path d="M140.054 41.8284C139.413 41.8284 138.84 41.6805 138.335 41.386C137.829 41.09 137.43 40.6807 137.136 40.1567C136.841 39.6326 136.695 39.0311 136.695 38.3521C136.695 37.6732 136.843 37.0454 137.136 36.5199C137.43 35.9959 137.832 35.5852 138.342 35.2906C138.851 34.9947 139.426 34.8481 140.068 34.8481C140.71 34.8481 141.28 34.9961 141.78 35.2906C142.281 35.5866 142.678 35.9945 142.972 36.5144C143.266 37.0343 143.412 37.6428 143.412 38.3397C143.412 39.0366 143.265 39.634 142.972 40.158C142.677 40.6821 142.277 41.0928 141.773 41.3873C141.267 41.6833 140.694 41.8298 140.054 41.8298M140.054 40.2811C140.335 40.2811 140.591 40.2078 140.824 40.0626C141.057 39.9174 141.245 39.699 141.39 39.4086C141.535 39.1182 141.608 38.76 141.608 38.3369C141.608 37.9138 141.537 37.546 141.397 37.2597C141.256 36.9735 141.072 36.7578 140.843 36.6112C140.614 36.466 140.36 36.3927 140.079 36.3927C139.798 36.3927 139.525 36.466 139.288 36.6112C139.051 36.7564 138.862 36.9735 138.722 37.2597C138.581 37.546 138.511 37.9055 138.511 38.3369C138.511 38.7683 138.578 39.1168 138.715 39.4086C138.851 39.699 139.037 39.9174 139.274 40.0626C139.511 40.2078 139.77 40.2811 140.051 40.2811" fill="white"/>
<path d="M146.509 32.1475H144.73V41.6693H146.509V32.1475Z" fill="white"/>
<path d="M147.549 34.436L147.391 33.2593L150.275 31.593L150.474 32.9551L147.549 34.436ZM148.037 35.0044H149.815V41.6694H148.037V35.0044Z" fill="white"/>
<path d="M153.121 41.6694L150.684 35.0044H152.554L154.214 39.9893L155.86 35.0044H157.705L155.282 41.6694H153.121Z" fill="white"/>
<path d="M160.421 41.8284C159.877 41.8284 159.424 41.7386 159.064 41.5574C158.705 41.3763 158.435 41.1343 158.254 40.8301C158.074 40.5259 157.984 40.1885 157.984 39.8179C157.984 39.403 158.088 39.0421 158.294 38.7338C158.501 38.4254 158.815 38.1848 159.237 38.0133C159.658 37.8419 160.194 37.7561 160.844 37.7561H162.464C162.464 37.4215 162.423 37.1477 162.339 36.9362C162.255 36.7246 162.12 36.5656 161.931 36.4605C161.742 36.354 161.494 36.3015 161.187 36.3015C160.854 36.3015 160.57 36.372 160.337 36.513C160.104 36.6541 159.961 36.8795 159.909 37.1878H158.183C158.227 36.7025 158.383 36.289 158.651 35.9447C158.918 35.6004 159.275 35.3321 159.719 35.1385C160.162 34.9449 160.655 34.8481 161.201 34.8481C161.825 34.8481 162.366 34.9519 162.828 35.1593C163.289 35.3667 163.641 35.6709 163.882 36.0719C164.123 36.4729 164.244 36.9597 164.244 37.5335V41.6722H162.755L162.557 40.6545C162.46 40.8315 162.343 40.9891 162.208 41.1301C162.072 41.2712 161.913 41.3943 161.734 41.5007C161.554 41.6058 161.359 41.6874 161.147 41.7455C160.937 41.8022 160.695 41.8312 160.423 41.8312M160.857 40.4526C161.076 40.4526 161.275 40.4111 161.456 40.3267C161.636 40.2424 161.792 40.1262 161.924 39.9769C162.056 39.8276 162.161 39.6589 162.24 39.4749C162.318 39.2897 162.372 39.0878 162.398 38.8665V38.8527H161.041C160.76 38.8527 160.534 38.8859 160.363 38.9523C160.193 39.0186 160.067 39.1127 159.989 39.2371C159.91 39.3602 159.87 39.5012 159.87 39.6602C159.87 39.8276 159.91 39.9714 159.989 40.0903C160.067 40.2092 160.184 40.2991 160.337 40.3613C160.49 40.4235 160.665 40.454 160.858 40.454" fill="white"/>
<path d="M165.691 41.6693V35.0043H167.273L167.431 36.2212C167.598 35.9391 167.802 35.6943 168.044 35.4869C168.285 35.2795 168.562 35.1205 168.875 35.0112C169.186 34.9006 169.532 34.8467 169.91 34.8467V36.7369H169.303C169.04 36.7369 168.796 36.766 168.572 36.8227C168.349 36.8808 168.152 36.9817 167.985 37.1269C167.818 37.2721 167.69 37.4615 167.603 37.6952C167.515 37.9289 167.471 38.2262 167.471 38.5885V41.6693H165.693H165.691Z" fill="white"/>
<path d="M90.2485 22.7944C90.1727 22.8068 90.1727 22.9133 90.2485 22.9258C92.7074 23.3212 94.5906 25.4646 94.5906 28.049V41.8616C94.5906 43.7768 93.0477 45.3186 91.1467 45.3186H60.6653V25.1175H80.4471V20.6704H56.1592V45.3186H38.5595V20.6704H33.9088V41.8616C33.9088 43.7713 32.3673 45.3186 30.4649 45.3186H3.44392C1.54287 45.3186 0 43.7754 0 41.8616V3.77557C0 1.86732 1.54287 0.318604 3.44392 0.318604H14.6504V30.4938H19.3025V0.318604H91.1453C93.0477 0.318604 94.5892 1.86732 94.5892 3.77557V17.6753C94.5892 20.2598 92.7074 22.3989 90.2471 22.793" fill="white"/>
</g>
</g>
<line x1="193" y1="45" x2="193" y2="1" stroke="white" stroke-width="2" stroke-linecap="round"/>
<path d="M205.984 18.4668V3.62703H212.222C212.892 3.62703 213.506 3.76637 214.064 4.04505C214.622 4.32373 215.111 4.69299 215.53 5.15281C215.948 5.61263 216.269 6.12819 216.493 6.69949C216.716 7.27078 216.827 7.85601 216.827 8.45518C216.827 9.27729 216.639 10.0646 216.262 10.817C215.899 11.5555 215.376 12.1547 214.692 12.6145C214.022 13.0743 213.241 13.3042 212.348 13.3042H208.328V18.4668H205.984ZM208.328 11.235H212.201C212.648 11.235 213.039 11.1166 213.373 10.8797C213.708 10.6289 213.967 10.2945 214.148 9.87645C214.343 9.45843 214.441 8.98467 214.441 8.45518C214.441 7.91175 214.329 7.43103 214.106 7.013C213.883 6.59498 213.59 6.2745 213.227 6.05156C212.878 5.81468 212.494 5.69624 212.076 5.69624H208.328V11.235Z" fill="white"/>
<path d="M218.754 3.20901H221.057V15.3107C221.057 15.8681 221.141 16.2234 221.308 16.3767C221.476 16.53 221.685 16.6066 221.936 16.6066C222.215 16.6066 222.474 16.5787 222.711 16.523C222.962 16.4673 223.178 16.3976 223.36 16.314L223.695 18.1324C223.36 18.2717 222.962 18.3902 222.501 18.4877C222.041 18.5852 221.629 18.634 221.266 18.634C220.485 18.634 219.871 18.418 219.424 17.9861C218.978 17.5402 218.754 16.9271 218.754 16.1468V3.20901Z" fill="white"/>
<path d="M224.234 15.2689C224.234 14.5722 224.43 13.9661 224.821 13.4505C225.225 12.921 225.777 12.517 226.474 12.2383C227.172 11.9457 227.982 11.7993 228.903 11.7993C229.391 11.7993 229.886 11.8342 230.389 11.9039C230.905 11.9735 231.359 12.085 231.75 12.2383V11.5485C231.75 10.7822 231.519 10.183 231.059 9.75104C230.598 9.31909 229.935 9.10311 229.07 9.10311C228.456 9.10311 227.877 9.21458 227.333 9.43753C226.788 9.64654 226.209 9.94612 225.595 10.3363L224.821 8.7896C225.546 8.3019 226.272 7.93962 226.998 7.70274C227.737 7.46586 228.512 7.34742 229.321 7.34742C230.787 7.34742 231.938 7.73758 232.775 8.51788C233.627 9.28425 234.052 10.3781 234.052 11.7993V15.8751C234.052 16.1398 234.094 16.3279 234.178 16.4394C234.276 16.5509 234.436 16.6136 234.659 16.6275V18.4668C234.45 18.5086 234.262 18.5365 234.094 18.5504C233.927 18.5643 233.787 18.5713 233.675 18.5713C233.187 18.5713 232.817 18.4529 232.566 18.216C232.315 17.9791 232.168 17.7004 232.126 17.3799L232.064 16.7529C231.589 17.366 230.982 17.8398 230.242 18.1742C229.503 18.5086 228.756 18.6758 228.002 18.6758C227.277 18.6758 226.628 18.5295 226.056 18.2369C225.483 17.9303 225.037 17.5193 224.716 17.0037C224.395 16.4882 224.234 15.9099 224.234 15.2689ZM231.205 15.9378C231.373 15.7566 231.505 15.5755 231.603 15.3943C231.701 15.2132 231.75 15.0529 231.75 14.9136V13.6595C231.359 13.5063 230.947 13.3948 230.514 13.3251C230.082 13.2415 229.656 13.1997 229.238 13.1997C228.4 13.1997 227.716 13.3669 227.186 13.7013C226.67 14.0358 226.411 14.4956 226.411 15.0808C226.411 15.4013 226.495 15.7078 226.663 16.0005C226.844 16.2931 227.095 16.53 227.416 16.7111C227.751 16.8922 228.163 16.9828 228.651 16.9828C229.154 16.9828 229.635 16.8853 230.096 16.6902C230.556 16.4951 230.926 16.2443 231.205 15.9378Z" fill="white"/>
<path d="M242.856 17.9025C242.66 18 242.416 18.1045 242.123 18.216C241.83 18.3274 241.495 18.425 241.118 18.5086C240.755 18.5922 240.379 18.634 239.988 18.634C239.513 18.634 239.074 18.5504 238.669 18.3832C238.264 18.216 237.936 17.9512 237.685 17.5889C237.448 17.2127 237.329 16.732 237.329 16.1468V9.31212H235.885V7.53553H237.329V3.94055H239.632V7.53553H242.018V9.31212H239.632V15.4152C239.66 15.7915 239.779 16.0701 239.988 16.2513C240.211 16.4324 240.483 16.523 240.804 16.523C241.125 16.523 241.432 16.4673 241.725 16.3558C242.018 16.2443 242.235 16.1537 242.374 16.0841L242.856 17.9025Z" fill="white"/>
<path d="M243.655 15.2689C243.655 14.5722 243.851 13.9661 244.241 13.4505C244.646 12.921 245.197 12.517 245.895 12.2383C246.593 11.9457 247.402 11.7993 248.323 11.7993C248.812 11.7993 249.307 11.8342 249.81 11.9039C250.326 11.9735 250.78 12.085 251.17 12.2383V11.5485C251.17 10.7822 250.94 10.183 250.48 9.75104C250.019 9.31909 249.356 9.10311 248.491 9.10311C247.877 9.10311 247.298 9.21458 246.753 9.43753C246.209 9.64654 245.63 9.94612 245.016 10.3363L244.241 8.7896C244.967 8.3019 245.693 7.93962 246.418 7.70274C247.158 7.46586 247.933 7.34742 248.742 7.34742C250.207 7.34742 251.359 7.73758 252.196 8.51788C253.047 9.28425 253.473 10.3781 253.473 11.7993V15.8751C253.473 16.1398 253.515 16.3279 253.599 16.4394C253.696 16.5509 253.857 16.6136 254.08 16.6275V18.4668C253.871 18.5086 253.682 18.5365 253.515 18.5504C253.347 18.5643 253.208 18.5713 253.096 18.5713C252.608 18.5713 252.238 18.4529 251.987 18.216C251.736 17.9791 251.589 17.7004 251.547 17.3799L251.484 16.7529C251.01 17.366 250.403 17.8398 249.663 18.1742C248.924 18.5086 248.177 18.6758 247.423 18.6758C246.698 18.6758 246.049 18.5295 245.476 18.2369C244.904 17.9303 244.458 17.5193 244.137 17.0037C243.816 16.4882 243.655 15.9099 243.655 15.2689ZM250.626 15.9378C250.794 15.7566 250.926 15.5755 251.024 15.3943C251.122 15.2132 251.17 15.0529 251.17 14.9136V13.6595C250.78 13.5063 250.368 13.3948 249.935 13.3251C249.503 13.2415 249.077 13.1997 248.658 13.1997C247.821 13.1997 247.137 13.3669 246.607 13.7013C246.091 14.0358 245.832 14.4956 245.832 15.0808C245.832 15.4013 245.916 15.7078 246.084 16.0005C246.265 16.2931 246.516 16.53 246.837 16.7111C247.172 16.8922 247.584 16.9828 248.072 16.9828C248.575 16.9828 249.056 16.8853 249.517 16.6902C249.977 16.4951 250.347 16.2443 250.626 15.9378Z" fill="white"/>
<path d="M256.833 18.4668V9.58384H255.368V7.80724H256.833V7.36832C256.833 6.47654 256.973 5.7032 257.252 5.0483C257.545 4.3934 257.95 3.89178 258.466 3.54343C258.997 3.18114 259.618 3 260.329 3C260.776 3 261.216 3.0627 261.648 3.18811C262.081 3.29958 262.492 3.45982 262.883 3.66883L262.381 5.38272C262.172 5.24338 261.92 5.13888 261.627 5.06921C261.348 4.9856 261.076 4.9438 260.811 4.9438C260.28 4.9438 259.869 5.14584 259.576 5.54993C259.283 5.95402 259.136 6.53925 259.136 7.30562V7.80724H261.941V9.58384H259.136V18.4668H256.833Z" fill="white"/>
<path d="M268.382 18.6758C267.517 18.6758 266.742 18.5295 266.058 18.2369C265.375 17.9303 264.781 17.5123 264.279 16.9828C263.791 16.4533 263.414 15.8542 263.149 15.1853C262.884 14.5026 262.751 13.778 262.751 13.0116C262.751 12.2452 262.884 11.5207 263.149 10.8379C263.414 10.1551 263.791 9.55597 264.279 9.04041C264.781 8.51091 265.375 8.09986 266.058 7.80724C266.756 7.5007 267.531 7.34742 268.382 7.34742C269.233 7.34742 270.001 7.5007 270.685 7.80724C271.383 8.09986 271.976 8.51091 272.464 9.04041C272.967 9.55597 273.35 10.1551 273.615 10.8379C273.881 11.5207 274.013 12.2452 274.013 13.0116C274.013 13.778 273.881 14.5026 273.615 15.1853C273.35 15.8542 272.967 16.4533 272.464 16.9828C271.976 17.5123 271.383 17.9303 270.685 18.2369C270.001 18.5295 269.233 18.6758 268.382 18.6758ZM265.116 13.0325C265.116 13.7292 265.263 14.3562 265.556 14.9136C265.849 15.471 266.24 15.9099 266.728 16.2304C267.217 16.5509 267.768 16.7111 268.382 16.7111C268.982 16.7111 269.526 16.5509 270.015 16.2304C270.517 15.896 270.915 15.4501 271.208 14.8927C271.501 14.3214 271.648 13.6944 271.648 13.0116C271.648 12.3149 271.501 11.6879 271.208 11.1305C270.915 10.5732 270.517 10.1342 270.015 9.81375C269.526 9.47933 268.982 9.31212 268.382 9.31212C267.768 9.31212 267.217 9.47933 266.728 9.81375C266.24 10.1482 265.849 10.5941 265.556 11.1514C265.263 11.6948 265.116 12.3219 265.116 13.0325Z" fill="white"/>
<path d="M282.21 9.52113C281.317 9.53507 280.521 9.73711 279.824 10.1273C279.14 10.5174 278.651 11.0678 278.358 11.7784V18.4668H276.056V7.53553H278.191V9.98096C278.568 9.22852 279.063 8.62935 279.677 8.18346C280.291 7.72364 280.94 7.47283 281.624 7.43103C281.763 7.43103 281.875 7.43103 281.959 7.43103C282.057 7.43103 282.14 7.43799 282.21 7.45193V9.52113Z" fill="white"/>
<path d="M300.632 18.4668H298.329V12.3428C298.329 11.3256 298.162 10.5801 297.827 10.1064C297.492 9.63261 297.004 9.39573 296.362 9.39573C295.72 9.39573 295.12 9.63957 294.561 10.1273C294.017 10.601 293.633 11.2211 293.41 11.9875V18.4668H291.107V12.3428C291.107 11.3256 290.94 10.5801 290.605 10.1064C290.27 9.63261 289.788 9.39573 289.16 9.39573C288.519 9.39573 287.918 9.63261 287.36 10.1064C286.816 10.5801 286.425 11.2002 286.188 11.9666V18.4668H283.885V7.53553H285.979V9.73014C286.411 8.96377 286.976 8.37854 287.674 7.97445C288.386 7.55643 289.195 7.34742 290.103 7.34742C291.01 7.34742 291.721 7.5843 292.238 8.05806C292.768 8.53182 293.096 9.12401 293.222 9.83465C293.696 9.02647 294.275 8.41338 294.959 7.99535C295.657 7.5634 296.452 7.34742 297.346 7.34742C297.987 7.34742 298.525 7.46586 298.957 7.70274C299.39 7.93962 299.725 8.26707 299.962 8.68509C300.199 9.08918 300.367 9.56293 300.465 10.1064C300.576 10.6359 300.632 11.2002 300.632 11.7993V18.4668Z" fill="white"/>
<path d="M302.49 15.2689C302.49 14.5722 302.686 13.9661 303.076 13.4505C303.481 12.921 304.032 12.517 304.73 12.2383C305.428 11.9457 306.237 11.7993 307.158 11.7993C307.647 11.7993 308.142 11.8342 308.645 11.9039C309.161 11.9735 309.615 12.085 310.005 12.2383V11.5485C310.005 10.7822 309.775 10.183 309.314 9.75104C308.854 9.31909 308.191 9.10311 307.326 9.10311C306.712 9.10311 306.133 9.21458 305.588 9.43753C305.044 9.64654 304.465 9.94612 303.851 10.3363L303.076 8.7896C303.802 8.3019 304.528 7.93962 305.253 7.70274C305.993 7.46586 306.768 7.34742 307.577 7.34742C309.042 7.34742 310.194 7.73758 311.031 8.51788C311.882 9.28425 312.308 10.3781 312.308 11.7993V15.8751C312.308 16.1398 312.35 16.3279 312.434 16.4394C312.531 16.5509 312.692 16.6136 312.915 16.6275V18.4668C312.706 18.5086 312.517 18.5365 312.35 18.5504C312.182 18.5643 312.043 18.5713 311.931 18.5713C311.443 18.5713 311.073 18.4529 310.822 18.216C310.57 17.9791 310.424 17.7004 310.382 17.3799L310.319 16.7529C309.845 17.366 309.238 17.8398 308.498 18.1742C307.758 18.5086 307.012 18.6758 306.258 18.6758C305.532 18.6758 304.884 18.5295 304.311 18.2369C303.739 17.9303 303.293 17.5193 302.972 17.0037C302.651 16.4882 302.49 15.9099 302.49 15.2689ZM309.461 15.9378C309.628 15.7566 309.761 15.5755 309.859 15.3943C309.956 15.2132 310.005 15.0529 310.005 14.9136V13.6595C309.615 13.5063 309.203 13.3948 308.77 13.3251C308.338 13.2415 307.912 13.1997 307.493 13.1997C306.656 13.1997 305.972 13.3669 305.442 13.7013C304.925 14.0358 304.667 14.4956 304.667 15.0808C304.667 15.4013 304.751 15.7078 304.918 16.0005C305.1 16.2931 305.351 16.53 305.672 16.7111C306.007 16.8922 306.419 16.9828 306.907 16.9828C307.41 16.9828 307.891 16.8853 308.352 16.6902C308.812 16.4951 309.182 16.2443 309.461 15.9378Z" fill="white"/>
<path d="M319.583 13.0116C319.583 11.9666 319.792 11.019 320.211 10.1691C320.644 9.30516 321.23 8.62239 321.969 8.12076C322.709 7.6052 323.56 7.34742 324.523 7.34742C325.361 7.34742 326.114 7.5634 326.784 7.99535C327.468 8.42731 327.998 8.96377 328.375 9.60474V3.20901H330.678V15.8751C330.678 16.1398 330.727 16.3279 330.824 16.4394C330.922 16.5509 331.082 16.6136 331.306 16.6275V18.4668C330.873 18.5365 330.538 18.5713 330.301 18.5713C329.868 18.5713 329.498 18.4459 329.191 18.1951C328.898 17.9443 328.745 17.6447 328.731 17.2963L328.71 16.4812C328.291 17.1779 327.726 17.7213 327.014 18.1115C326.303 18.4877 325.563 18.6758 324.795 18.6758C324.042 18.6758 323.344 18.5295 322.702 18.2369C322.074 17.9443 321.523 17.5332 321.048 17.0037C320.588 16.4742 320.225 15.8681 319.96 15.1853C319.709 14.5026 319.583 13.778 319.583 13.0116ZM328.375 14.5374V11.6739C328.222 11.2281 327.97 10.8309 327.621 10.4826C327.286 10.1203 326.903 9.83465 326.47 9.62564C326.051 9.41663 325.633 9.31212 325.214 9.31212C324.726 9.31212 324.279 9.41663 323.874 9.62564C323.484 9.83465 323.142 10.1133 322.849 10.4617C322.569 10.81 322.353 11.2072 322.2 11.653C322.046 12.0989 321.969 12.5657 321.969 13.0534C321.969 13.555 322.053 14.0288 322.221 14.4747C322.388 14.9066 322.625 15.2968 322.932 15.6451C323.253 15.9796 323.616 16.2443 324.021 16.4394C324.44 16.6205 324.893 16.7111 325.382 16.7111C325.689 16.7111 325.996 16.6554 326.303 16.5439C326.624 16.4324 326.924 16.2791 327.203 16.0841C327.496 15.889 327.74 15.6591 327.935 15.3943C328.145 15.1296 328.291 14.8439 328.375 14.5374Z" fill="white"/>
<path d="M338.564 18.6758C337.713 18.6758 336.938 18.5295 336.24 18.2369C335.556 17.9303 334.963 17.5193 334.461 17.0037C333.958 16.4742 333.568 15.8751 333.289 15.2062C333.023 14.5235 332.891 13.7989 332.891 13.0325C332.891 12.0014 333.128 11.0608 333.603 10.2109C334.077 9.34696 334.74 8.65722 335.591 8.14166C336.443 7.61217 337.44 7.34742 338.585 7.34742C339.729 7.34742 340.713 7.61217 341.536 8.14166C342.374 8.65722 343.023 9.33999 343.483 10.19C343.944 11.0399 344.174 11.9526 344.174 12.928C344.174 13.0952 344.167 13.2555 344.153 13.4087C344.139 13.5481 344.125 13.6665 344.111 13.764H335.34C335.382 14.405 335.556 14.9693 335.863 15.457C336.184 15.9308 336.589 16.307 337.078 16.5857C337.566 16.8504 338.089 16.9828 338.648 16.9828C339.262 16.9828 339.841 16.8295 340.385 16.523C340.943 16.2164 341.32 15.8124 341.515 15.3107L343.483 15.8751C343.246 16.4046 342.883 16.8853 342.395 17.3172C341.92 17.7353 341.355 18.0697 340.699 18.3205C340.043 18.5574 339.331 18.6758 338.564 18.6758ZM335.277 12.2383H341.892C341.85 11.6112 341.669 11.0608 341.348 10.5871C341.041 10.0994 340.643 9.72318 340.155 9.45843C339.68 9.17975 339.15 9.04041 338.564 9.04041C337.992 9.04041 337.461 9.17975 336.973 9.45843C336.498 9.72318 336.108 10.0994 335.801 10.5871C335.494 11.0608 335.319 11.6112 335.277 12.2383Z" fill="white"/>
<path d="M357.588 18.5713C356.611 18.5713 355.697 18.3693 354.846 17.9652C353.995 17.5611 353.248 17.0037 352.606 16.2931C351.978 15.5824 351.483 14.7743 351.12 13.8686C350.771 12.9628 350.596 12.0014 350.596 10.9842C350.596 9.96702 350.771 9.01254 351.12 8.12076C351.483 7.22898 351.978 6.43474 352.606 5.73804C353.248 5.04134 353.995 4.49791 354.846 4.10776C355.711 3.7176 356.653 3.52253 357.672 3.52253C359.081 3.52253 360.268 3.82211 361.231 4.42127C362.208 5.0065 362.94 5.78681 363.429 6.76219L361.628 8.05806C361.238 7.24988 360.679 6.64375 359.954 6.23966C359.242 5.83558 358.46 5.63353 357.609 5.63353C356.911 5.63353 356.276 5.77984 355.704 6.07246C355.132 6.36507 354.637 6.76916 354.218 7.28472C353.813 7.78634 353.506 8.36461 353.297 9.01951C353.087 9.66047 352.983 10.3363 352.983 11.0469C352.983 11.7993 353.101 12.503 353.339 13.1579C353.576 13.8128 353.911 14.3911 354.344 14.8927C354.776 15.3804 355.286 15.7636 355.872 16.0423C356.458 16.3209 357.093 16.4603 357.777 16.4603C358.586 16.4603 359.354 16.2582 360.079 15.8542C360.819 15.4361 361.51 14.8161 362.152 13.994V16.3767C360.854 17.8398 359.333 18.5713 357.588 18.5713ZM361.921 12.6981H358.802V10.9633H363.889V18.4668H361.921V12.6981Z" fill="white"/>
<path d="M371.232 18.6758C370.38 18.6758 369.606 18.5295 368.908 18.2369C368.224 17.9303 367.631 17.5193 367.129 17.0037C366.626 16.4742 366.236 15.8751 365.956 15.2062C365.691 14.5235 365.559 13.7989 365.559 13.0325C365.559 12.0014 365.796 11.0608 366.27 10.2109C366.745 9.34696 367.408 8.65722 368.259 8.14166C369.11 7.61217 370.108 7.34742 371.253 7.34742C372.397 7.34742 373.381 7.61217 374.204 8.14166C375.042 8.65722 375.691 9.33999 376.151 10.19C376.612 11.0399 376.842 11.9526 376.842 12.928C376.842 13.0952 376.835 13.2555 376.821 13.4087C376.807 13.5481 376.793 13.6665 376.779 13.764H368.008C368.05 14.405 368.224 14.9693 368.531 15.457C368.852 15.9308 369.257 16.307 369.745 16.5857C370.234 16.8504 370.757 16.9828 371.315 16.9828C371.929 16.9828 372.509 16.8295 373.053 16.523C373.611 16.2164 373.988 15.8124 374.183 15.3107L376.151 15.8751C375.914 16.4046 375.551 16.8853 375.063 17.3172C374.588 17.7353 374.023 18.0697 373.367 18.3205C372.711 18.5574 371.999 18.6758 371.232 18.6758ZM367.945 12.2383H374.56C374.518 11.6112 374.337 11.0608 374.016 10.5871C373.709 10.0994 373.311 9.72318 372.823 9.45843C372.348 9.17975 371.818 9.04041 371.232 9.04041C370.66 9.04041 370.129 9.17975 369.641 9.45843C369.166 9.72318 368.775 10.0994 368.468 10.5871C368.161 11.0608 367.987 11.6112 367.945 12.2383Z" fill="white"/>
<path d="M382.614 18.6758C381.693 18.6758 380.821 18.5295 379.997 18.2369C379.174 17.9303 378.469 17.4775 377.883 16.8783L378.741 15.3316C379.369 15.889 379.997 16.2931 380.625 16.5439C381.267 16.7947 381.902 16.9201 382.53 16.9201C383.172 16.9201 383.695 16.8017 384.1 16.5648C384.505 16.314 384.707 15.9517 384.707 15.4779C384.707 15.1296 384.603 14.8718 384.393 14.7046C384.184 14.5374 383.877 14.3911 383.472 14.2657C383.081 14.1403 382.607 14.0009 382.049 13.8477C381.267 13.6108 380.611 13.3669 380.081 13.1161C379.551 12.8514 379.153 12.5309 378.888 12.1547C378.623 11.7784 378.49 11.2977 378.49 10.7125C378.49 10.0019 378.671 9.39573 379.034 8.8941C379.397 8.39247 379.899 8.00929 380.541 7.74454C381.197 7.4798 381.951 7.34742 382.802 7.34742C383.598 7.34742 384.33 7.47283 385 7.72364C385.684 7.96052 386.284 8.33674 386.801 8.8523L385.817 10.3781C385.328 9.93219 384.826 9.60474 384.309 9.39573C383.807 9.18672 383.263 9.08221 382.677 9.08221C382.342 9.08221 382.021 9.12401 381.714 9.20762C381.407 9.27729 381.148 9.41663 380.939 9.62564C380.744 9.82071 380.646 10.0994 380.646 10.4617C380.646 10.7543 380.73 10.9912 380.897 11.1723C381.065 11.3535 381.316 11.5067 381.651 11.6321C381.986 11.7575 382.398 11.8969 382.886 12.0502C383.737 12.301 384.463 12.5518 385.063 12.8026C385.663 13.0395 386.124 13.353 386.445 13.7431C386.78 14.1194 386.947 14.6419 386.947 15.3107C386.947 16.3697 386.549 17.1988 385.754 17.798C384.972 18.3832 383.926 18.6758 382.614 18.6758Z" fill="white"/>
<path d="M395.074 17.9025C394.879 18 394.635 18.1045 394.342 18.216C394.049 18.3274 393.714 18.425 393.337 18.5086C392.974 18.5922 392.597 18.634 392.206 18.634C391.732 18.634 391.292 18.5504 390.888 18.3832C390.483 18.216 390.155 17.9512 389.904 17.5889C389.666 17.2127 389.548 16.732 389.548 16.1468V9.31212H388.103V7.53553H389.548V3.94055H391.85V7.53553H394.237V9.31212H391.85V15.4152C391.878 15.7915 391.997 16.0701 392.206 16.2513C392.43 16.4324 392.702 16.523 393.023 16.523C393.344 16.523 393.651 16.4673 393.944 16.3558C394.237 16.2443 394.453 16.1537 394.593 16.0841L395.074 17.9025Z" fill="white"/>
<path d="M396.669 18.4668V7.53553H398.972V18.4668H396.669ZM396.669 5.73804V3.20901H398.972V5.73804H396.669Z" fill="white"/>
<path d="M406.658 18.6758C405.793 18.6758 405.019 18.5295 404.335 18.2369C403.651 17.9303 403.058 17.5123 402.555 16.9828C402.067 16.4533 401.69 15.8542 401.425 15.1853C401.16 14.5026 401.027 13.778 401.027 13.0116C401.027 12.2452 401.16 11.5207 401.425 10.8379C401.69 10.1551 402.067 9.55597 402.555 9.04041C403.058 8.51091 403.651 8.09986 404.335 7.80724C405.033 7.5007 405.807 7.34742 406.658 7.34742C407.51 7.34742 408.277 7.5007 408.961 7.80724C409.659 8.09986 410.252 8.51091 410.74 9.04041C411.243 9.55597 411.627 10.1551 411.892 10.8379C412.157 11.5207 412.29 12.2452 412.29 13.0116C412.29 13.778 412.157 14.5026 411.892 15.1853C411.627 15.8542 411.243 16.4533 410.74 16.9828C410.252 17.5123 409.659 17.9303 408.961 18.2369C408.277 18.5295 407.51 18.6758 406.658 18.6758ZM403.393 13.0325C403.393 13.7292 403.539 14.3562 403.832 14.9136C404.125 15.471 404.516 15.9099 405.005 16.2304C405.493 16.5509 406.044 16.7111 406.658 16.7111C407.258 16.7111 407.803 16.5509 408.291 16.2304C408.794 15.896 409.191 15.4501 409.484 14.8927C409.778 14.3214 409.924 13.6944 409.924 13.0116C409.924 12.3149 409.778 11.6879 409.484 11.1305C409.191 10.5732 408.794 10.1342 408.291 9.81375C407.803 9.47933 407.258 9.31212 406.658 9.31212C406.044 9.31212 405.493 9.47933 405.005 9.81375C404.516 10.1482 404.125 10.5941 403.832 11.1514C403.539 11.6948 403.393 12.3219 403.393 13.0325ZM407.433 5.96795L405.926 5.50813L407.119 3.20901H409.317L407.433 5.96795Z" fill="white"/>
<path d="M424.15 18.4668H421.847V12.3428C421.847 11.3256 421.68 10.5801 421.345 10.1064C421.024 9.63261 420.542 9.39573 419.9 9.39573C419.454 9.39573 419.007 9.5072 418.56 9.73014C418.128 9.95309 417.737 10.2596 417.388 10.6498C417.039 11.026 416.788 11.4649 416.635 11.9666V18.4668H414.332V7.53553H416.425V9.73014C416.704 9.24245 417.067 8.82443 417.514 8.47608C417.974 8.11379 418.491 7.83511 419.063 7.64004C419.635 7.44496 420.242 7.34742 420.884 7.34742C421.54 7.34742 422.077 7.46586 422.496 7.70274C422.929 7.93962 423.264 8.26707 423.501 8.68509C423.752 9.08918 423.919 9.56293 424.003 10.1064C424.101 10.6359 424.15 11.2002 424.15 11.7993V18.4668Z" fill="white"/>
<path d="M205 33.0929C205 32.0478 205.209 31.1003 205.628 30.2503C206.061 29.3864 206.647 28.7037 207.386 28.202C208.126 27.6865 208.977 27.4287 209.94 27.4287C210.778 27.4287 211.531 27.6447 212.201 28.0766C212.885 28.5086 213.415 29.0451 213.792 29.686V23.2903H216.095V35.9563C216.095 36.2211 216.144 36.4092 216.241 36.5207C216.339 36.6321 216.5 36.6948 216.723 36.7088V38.5481C216.29 38.6177 215.955 38.6526 215.718 38.6526C215.285 38.6526 214.916 38.5272 214.609 38.2764C214.315 38.0255 214.162 37.726 214.148 37.3776L214.127 36.5625C213.708 37.2592 213.143 37.8026 212.431 38.1928C211.72 38.569 210.98 38.7571 210.212 38.7571C209.459 38.7571 208.761 38.6108 208.119 38.3182C207.491 38.0255 206.94 37.6145 206.465 37.085C206.005 36.5555 205.642 35.9494 205.377 35.2666C205.126 34.5838 205 33.8593 205 33.0929ZM213.792 34.6187V31.7552C213.639 31.3093 213.387 30.9122 213.039 30.5639C212.704 30.2016 212.32 29.9159 211.887 29.7069C211.468 29.4979 211.05 29.3934 210.631 29.3934C210.143 29.3934 209.696 29.4979 209.291 29.7069C208.901 29.9159 208.559 30.1946 208.266 30.543C207.987 30.8913 207.77 31.2884 207.617 31.7343C207.463 32.1802 207.386 32.647 207.386 33.1347C207.386 33.6363 207.47 34.1101 207.638 34.556C207.805 34.9879 208.042 35.3781 208.349 35.7264C208.67 36.0608 209.033 36.3256 209.438 36.5207C209.857 36.7018 210.31 36.7924 210.799 36.7924C211.106 36.7924 211.413 36.7366 211.72 36.6252C212.041 36.5137 212.341 36.3604 212.62 36.1653C212.913 35.9703 213.157 35.7404 213.353 35.4756C213.562 35.2109 213.708 34.9252 213.792 34.6187Z" fill="white"/>
<path d="M223.981 38.7571C223.13 38.7571 222.355 38.6108 221.657 38.3182C220.973 38.0116 220.38 37.6006 219.878 37.085C219.376 36.5555 218.985 35.9563 218.706 35.2875C218.44 34.6047 218.308 33.8802 218.308 33.1138C218.308 32.0827 218.545 31.1421 219.02 30.2921C219.494 29.4282 220.157 28.7385 221.008 28.2229C221.86 27.6935 222.857 27.4287 224.002 27.4287C225.146 27.4287 226.13 27.6935 226.953 28.2229C227.791 28.7385 228.44 29.4213 228.9 30.2712C229.361 31.1212 229.591 32.0339 229.591 33.0093C229.591 33.1765 229.584 33.3367 229.57 33.49C229.556 33.6294 229.542 33.7478 229.528 33.8453H220.757C220.799 34.4863 220.973 35.0506 221.28 35.5383C221.601 36.0121 222.006 36.3883 222.495 36.667C222.983 36.9317 223.506 37.0641 224.065 37.0641C224.679 37.0641 225.258 36.9108 225.802 36.6043C226.36 36.2977 226.737 35.8936 226.933 35.392L228.9 35.9563C228.663 36.4858 228.3 36.9666 227.812 37.3985C227.337 37.8165 226.772 38.151 226.116 38.4018C225.46 38.6386 224.748 38.7571 223.981 38.7571ZM220.694 32.3195H227.309C227.267 31.6925 227.086 31.1421 226.765 30.6684C226.458 30.1807 226.06 29.8045 225.572 29.5397C225.097 29.261 224.567 29.1217 223.981 29.1217C223.409 29.1217 222.878 29.261 222.39 29.5397C221.915 29.8045 221.525 30.1807 221.218 30.6684C220.911 31.1421 220.736 31.6925 220.694 32.3195Z" fill="white"/>
<path d="M236.935 38.5481V23.7083H243.403C244.073 23.7083 244.687 23.8477 245.245 24.1263C245.803 24.405 246.285 24.7743 246.69 25.2341C247.108 25.6939 247.429 26.2095 247.653 26.7808C247.89 27.3521 248.008 27.9373 248.008 28.5365C248.008 29.1914 247.89 29.8184 247.653 30.4176C247.415 31.0167 247.073 31.5323 246.627 31.9642C246.194 32.3962 245.685 32.7097 245.099 32.9048L248.595 38.5481H245.957L242.733 33.3855H239.279V38.5481H236.935ZM239.279 31.3163H243.382C243.815 31.3163 244.199 31.1909 244.533 30.9401C244.868 30.6893 245.134 30.3549 245.329 29.9368C245.524 29.5049 245.622 29.0381 245.622 28.5365C245.622 28.0209 245.51 27.5611 245.287 27.157C245.064 26.739 244.771 26.4046 244.408 26.1537C244.059 25.9029 243.675 25.7775 243.257 25.7775H239.279V31.3163Z" fill="white"/>
<path d="M255.095 38.7571C254.244 38.7571 253.469 38.6108 252.771 38.3182C252.088 38.0116 251.495 37.6006 250.992 37.085C250.49 36.5555 250.099 35.9563 249.82 35.2875C249.555 34.6047 249.422 33.8802 249.422 33.1138C249.422 32.0827 249.659 31.1421 250.134 30.2921C250.608 29.4282 251.271 28.7385 252.123 28.2229C252.974 27.6935 253.972 27.4287 255.116 27.4287C256.26 27.4287 257.244 27.6935 258.068 28.2229C258.905 28.7385 259.554 29.4213 260.015 30.2712C260.475 31.1212 260.705 32.0339 260.705 33.0093C260.705 33.1765 260.698 33.3367 260.684 33.49C260.67 33.6294 260.656 33.7478 260.643 33.8453H251.871C251.913 34.4863 252.088 35.0506 252.395 35.5383C252.716 36.0121 253.12 36.3883 253.609 36.667C254.097 36.9317 254.621 37.0641 255.179 37.0641C255.793 37.0641 256.372 36.9108 256.916 36.6043C257.475 36.2977 257.851 35.8936 258.047 35.392L260.015 35.9563C259.777 36.4858 259.414 36.9666 258.926 37.3985C258.451 37.8165 257.886 38.151 257.23 38.4018C256.574 38.6386 255.863 38.7571 255.095 38.7571ZM251.809 32.3195H258.424C258.382 31.6925 258.2 31.1421 257.879 30.6684C257.572 30.1807 257.175 29.8045 256.686 29.5397C256.212 29.261 255.681 29.1217 255.095 29.1217C254.523 29.1217 253.993 29.261 253.504 29.5397C253.03 29.8045 252.639 30.1807 252.332 30.6684C252.025 31.1421 251.85 31.6925 251.809 32.3195Z" fill="white"/>
<path d="M266.749 38.7571C266.038 38.7571 265.382 38.6108 264.782 38.3182C264.196 38.0116 263.686 37.6006 263.254 37.085C262.821 36.5555 262.486 35.9494 262.249 35.2666C262.025 34.5699 261.914 33.8384 261.914 33.072C261.914 32.2917 262.039 31.5601 262.291 30.8774C262.556 30.1946 262.919 29.5954 263.379 29.0799C263.854 28.5643 264.405 28.1602 265.033 27.8676C265.661 27.575 266.338 27.4287 267.063 27.4287C267.901 27.4287 268.654 27.6307 269.324 28.0348C270.008 28.4389 270.545 28.9614 270.936 29.6024V27.6168H272.967V43H270.664V36.4998C269.743 38.0046 268.438 38.7571 266.749 38.7571ZM267.587 36.7924C268.047 36.7924 268.466 36.7018 268.843 36.5207C269.234 36.3395 269.575 36.0957 269.869 35.7891C270.176 35.4686 270.441 35.1064 270.664 34.7023V31.8179C270.594 31.4835 270.455 31.177 270.245 30.8983C270.05 30.6057 269.806 30.3479 269.513 30.1249C269.22 29.8881 268.906 29.7069 268.571 29.5815C268.236 29.4561 267.908 29.3934 267.587 29.3934C267.098 29.3934 266.652 29.4979 266.247 29.7069C265.842 29.9159 265.486 30.2016 265.179 30.5639C264.886 30.9122 264.656 31.3093 264.489 31.7552C264.335 32.2011 264.258 32.6609 264.258 33.1347C264.258 33.8035 264.398 34.4166 264.677 34.974C264.97 35.5174 265.361 35.9563 265.849 36.2908C266.352 36.6252 266.931 36.7924 267.587 36.7924Z" fill="white"/>
<path d="M275.624 34.3052V27.6168H277.926V33.8453C277.926 34.8207 278.101 35.5592 278.45 36.0608C278.813 36.5485 279.336 36.7924 280.02 36.7924C280.452 36.7924 280.871 36.7018 281.276 36.5207C281.695 36.3395 282.071 36.0748 282.406 35.7264C282.755 35.3641 283.034 34.9322 283.244 34.4306V27.6168H285.546V35.9563C285.546 36.2211 285.595 36.4092 285.693 36.5207C285.791 36.6321 285.951 36.6948 286.174 36.7088V38.5481C285.937 38.5899 285.742 38.6177 285.588 38.6317C285.435 38.6456 285.288 38.6526 285.149 38.6526C284.73 38.6526 284.381 38.5411 284.102 38.3182C283.823 38.0813 283.662 37.7817 283.62 37.4194L283.579 36.3326C283.09 37.1268 282.455 37.7329 281.674 38.151C280.892 38.555 280.034 38.7571 279.099 38.7571C277.954 38.7571 277.089 38.3809 276.503 37.6284C275.917 36.876 275.624 35.7682 275.624 34.3052Z" fill="white"/>
<path d="M288.485 38.5481V27.6168H290.788V38.5481H288.485ZM288.485 25.8193V23.2903H290.788V25.8193H288.485Z" fill="white"/>
<path d="M297.448 38.7571C296.527 38.7571 295.655 38.6108 294.832 38.3182C294.008 38.0116 293.304 37.5588 292.717 36.9596L293.576 35.4129C294.204 35.9703 294.832 36.3744 295.46 36.6252C296.102 36.876 296.737 37.0014 297.365 37.0014C298.007 37.0014 298.53 36.8829 298.935 36.6461C299.339 36.3953 299.542 36.033 299.542 35.5592C299.542 35.2109 299.437 34.9531 299.228 34.7859C299.018 34.6187 298.711 34.4724 298.307 34.347C297.916 34.2216 297.441 34.0822 296.883 33.9289C296.102 33.6921 295.446 33.4482 294.915 33.1974C294.385 32.9327 293.987 32.6122 293.722 32.2359C293.457 31.8597 293.324 31.379 293.324 30.7938C293.324 30.0831 293.506 29.477 293.869 28.9754C294.232 28.4738 294.734 28.0906 295.376 27.8258C296.032 27.5611 296.785 27.4287 297.637 27.4287C298.432 27.4287 299.165 27.5541 299.835 27.8049C300.519 28.0418 301.119 28.418 301.635 28.9336L300.651 30.4594C300.163 30.0135 299.66 29.686 299.144 29.477C298.642 29.268 298.097 29.1635 297.511 29.1635C297.176 29.1635 296.855 29.2053 296.548 29.2889C296.241 29.3586 295.983 29.4979 295.774 29.7069C295.578 29.902 295.481 30.1807 295.481 30.543C295.481 30.8356 295.564 31.0725 295.732 31.2536C295.899 31.4347 296.151 31.588 296.485 31.7134C296.82 31.8388 297.232 31.9782 297.721 32.1314C298.572 32.3823 299.298 32.6331 299.898 32.8839C300.498 33.1208 300.958 33.4343 301.279 33.8244C301.614 34.2006 301.782 34.7232 301.782 35.392C301.782 36.451 301.384 37.2801 300.588 37.8792C299.807 38.4645 298.76 38.7571 297.448 38.7571Z" fill="white"/>
<path d="M303.838 38.5481V27.6168H306.14V38.5481H303.838ZM303.838 25.8193V23.2903H306.14V25.8193H303.838Z" fill="white"/>
<path d="M314.999 37.9837C314.804 38.0813 314.559 38.1858 314.266 38.2973C313.973 38.4087 313.638 38.5063 313.262 38.5899C312.899 38.6735 312.522 38.7153 312.131 38.7153C311.657 38.7153 311.217 38.6317 310.812 38.4645C310.408 38.2973 310.08 38.0325 309.828 37.6702C309.591 37.294 309.473 36.8133 309.473 36.2281V29.3934H308.028V27.6168H309.473V24.0218H311.775V27.6168H314.162V29.3934H311.775V35.4965C311.803 35.8727 311.922 36.1514 312.131 36.3326C312.354 36.5137 312.627 36.6043 312.948 36.6043C313.269 36.6043 313.576 36.5485 313.869 36.4371C314.162 36.3256 314.378 36.235 314.518 36.1653L314.999 37.9837Z" fill="white"/>
<path d="M321.37 38.7571C320.505 38.7571 319.73 38.6108 319.047 38.3182C318.363 38.0116 317.77 37.5936 317.267 37.0641C316.779 36.5346 316.402 35.9354 316.137 35.2666C315.872 34.5838 315.739 33.8593 315.739 33.0929C315.739 32.3265 315.872 31.6019 316.137 30.9192C316.402 30.2364 316.779 29.6372 317.267 29.1217C317.77 28.5922 318.363 28.1811 319.047 27.8885C319.744 27.582 320.519 27.4287 321.37 27.4287C322.222 27.4287 322.989 27.582 323.673 27.8885C324.371 28.1811 324.964 28.5922 325.452 29.1217C325.955 29.6372 326.339 30.2364 326.604 30.9192C326.869 31.6019 327.001 32.3265 327.001 33.0929C327.001 33.8593 326.869 34.5838 326.604 35.2666C326.339 35.9354 325.955 36.5346 325.452 37.0641C324.964 37.5936 324.371 38.0116 323.673 38.3182C322.989 38.6108 322.222 38.7571 321.37 38.7571ZM318.105 33.1138C318.105 33.8105 318.251 34.4375 318.544 34.9949C318.837 35.5522 319.228 35.9912 319.717 36.3117C320.205 36.6321 320.756 36.7924 321.37 36.7924C321.97 36.7924 322.515 36.6321 323.003 36.3117C323.506 35.9772 323.903 35.5313 324.196 34.974C324.489 34.4027 324.636 33.7757 324.636 33.0929C324.636 32.3962 324.489 31.7692 324.196 31.2118C323.903 30.6544 323.506 30.2155 323.003 29.895C322.515 29.5606 321.97 29.3934 321.37 29.3934C320.756 29.3934 320.205 29.5606 319.717 29.895C319.228 30.2294 318.837 30.6753 318.544 31.2327C318.251 31.7761 318.105 32.4032 318.105 33.1138Z" fill="white"/>
<path d="M332.937 38.7571C332.016 38.7571 331.144 38.6108 330.321 38.3182C329.497 38.0116 328.793 37.5588 328.206 36.9596L329.065 35.4129C329.693 35.9703 330.321 36.3744 330.949 36.6252C331.591 36.876 332.226 37.0014 332.854 37.0014C333.496 37.0014 334.019 36.8829 334.424 36.6461C334.828 36.3953 335.031 36.033 335.031 35.5592C335.031 35.2109 334.926 34.9531 334.717 34.7859C334.507 34.6187 334.2 34.4724 333.796 34.347C333.405 34.2216 332.93 34.0822 332.372 33.9289C331.591 33.6921 330.935 33.4482 330.404 33.1974C329.874 32.9327 329.476 32.6122 329.211 32.2359C328.946 31.8597 328.813 31.379 328.813 30.7938C328.813 30.0831 328.995 29.477 329.358 28.9754C329.721 28.4738 330.223 28.0906 330.865 27.8258C331.521 27.5611 332.275 27.4287 333.126 27.4287C333.921 27.4287 334.654 27.5541 335.324 27.8049C336.008 28.0418 336.608 28.418 337.124 28.9336L336.14 30.4594C335.652 30.0135 335.149 29.686 334.633 29.477C334.131 29.268 333.586 29.1635 333 29.1635C332.665 29.1635 332.344 29.2053 332.037 29.2889C331.73 29.3586 331.472 29.4979 331.263 29.7069C331.067 29.902 330.97 30.1807 330.97 30.543C330.97 30.8356 331.053 31.0725 331.221 31.2536C331.388 31.4347 331.64 31.588 331.974 31.7134C332.309 31.8388 332.721 31.9782 333.21 32.1314C334.061 32.3823 334.787 32.6331 335.387 32.8839C335.987 33.1208 336.447 33.4343 336.768 33.8244C337.103 34.2006 337.271 34.7232 337.271 35.392C337.271 36.451 336.873 37.2801 336.077 37.8792C335.296 38.4645 334.249 38.7571 332.937 38.7571Z" fill="white"/>
<path d="M343.808 33.0929C343.808 32.0478 344.017 31.1003 344.436 30.2503C344.868 29.3864 345.455 28.7037 346.194 28.202C346.934 27.6865 347.785 27.4287 348.748 27.4287C349.586 27.4287 350.339 27.6447 351.009 28.0766C351.693 28.5086 352.223 29.0451 352.6 29.686V23.2903H354.903V35.9563C354.903 36.2211 354.952 36.4092 355.049 36.5207C355.147 36.6321 355.307 36.6948 355.531 36.7088V38.5481C355.098 38.6177 354.763 38.6526 354.526 38.6526C354.093 38.6526 353.723 38.5272 353.416 38.2764C353.123 38.0255 352.97 37.726 352.956 37.3776L352.935 36.5625C352.516 37.2592 351.951 37.8026 351.239 38.1928C350.528 38.569 349.788 38.7571 349.02 38.7571C348.267 38.7571 347.569 38.6108 346.927 38.3182C346.299 38.0255 345.748 37.6145 345.273 37.085C344.813 36.5555 344.45 35.9494 344.185 35.2666C343.933 34.5838 343.808 33.8593 343.808 33.0929ZM352.6 34.6187V31.7552C352.446 31.3093 352.195 30.9122 351.846 30.5639C351.511 30.2016 351.128 29.9159 350.695 29.7069C350.276 29.4979 349.858 29.3934 349.439 29.3934C348.951 29.3934 348.504 29.4979 348.099 29.7069C347.708 29.9159 347.367 30.1946 347.074 30.543C346.794 30.8913 346.578 31.2884 346.425 31.7343C346.271 32.1802 346.194 32.647 346.194 33.1347C346.194 33.6363 346.278 34.1101 346.445 34.556C346.613 34.9879 346.85 35.3781 347.157 35.7264C347.478 36.0608 347.841 36.3256 348.246 36.5207C348.664 36.7018 349.118 36.7924 349.606 36.7924C349.913 36.7924 350.221 36.7366 350.528 36.6252C350.849 36.5137 351.149 36.3604 351.428 36.1653C351.721 35.9703 351.965 35.7404 352.16 35.4756C352.37 35.2109 352.516 34.9252 352.6 34.6187Z" fill="white"/>
<path d="M362.789 38.7571C361.937 38.7571 361.163 38.6108 360.465 38.3182C359.781 38.0116 359.188 37.6006 358.686 37.085C358.183 36.5555 357.793 35.9563 357.513 35.2875C357.248 34.6047 357.116 33.8802 357.116 33.1138C357.116 32.0827 357.353 31.1421 357.827 30.2921C358.302 29.4282 358.965 28.7385 359.816 28.2229C360.667 27.6935 361.665 27.4287 362.81 27.4287C363.954 27.4287 364.938 27.6935 365.761 28.2229C366.599 28.7385 367.248 29.4213 367.708 30.2712C368.169 31.1212 368.399 32.0339 368.399 33.0093C368.399 33.1765 368.392 33.3367 368.378 33.49C368.364 33.6294 368.35 33.7478 368.336 33.8453H359.565C359.607 34.4863 359.781 35.0506 360.088 35.5383C360.409 36.0121 360.814 36.3883 361.302 36.667C361.791 36.9317 362.314 37.0641 362.872 37.0641C363.487 37.0641 364.066 36.9108 364.61 36.6043C365.168 36.2977 365.545 35.8936 365.74 35.392L367.708 35.9563C367.471 36.4858 367.108 36.9666 366.62 37.3985C366.145 37.8165 365.58 38.151 364.924 38.4018C364.268 38.6386 363.556 38.7571 362.789 38.7571ZM359.502 32.3195H366.117C366.075 31.6925 365.894 31.1421 365.573 30.6684C365.266 30.1807 364.868 29.8045 364.38 29.5397C363.905 29.261 363.375 29.1217 362.789 29.1217C362.217 29.1217 361.686 29.261 361.198 29.5397C360.723 29.8045 360.333 30.1807 360.026 30.6684C359.718 31.1421 359.544 31.6925 359.502 32.3195Z" fill="white"/>
<path d="M381.813 38.6526C380.836 38.6526 379.922 38.4505 379.071 38.0464C378.22 37.6424 377.473 37.085 376.831 36.3744C376.203 35.6637 375.708 34.8555 375.345 33.9498C374.996 33.0441 374.821 32.0827 374.821 31.0655C374.821 30.0483 374.996 29.0938 375.345 28.202C375.708 27.3103 376.203 26.516 376.831 25.8193C377.473 25.1226 378.22 24.5792 379.071 24.189C379.936 23.7989 380.878 23.6038 381.897 23.6038C383.306 23.6038 384.493 23.9034 385.456 24.5026C386.432 25.0878 387.165 25.8681 387.654 26.8435L385.853 28.1393C385.463 27.3312 384.904 26.725 384.179 26.3209C383.467 25.9169 382.685 25.7148 381.834 25.7148C381.136 25.7148 380.501 25.8611 379.929 26.1537C379.357 26.4464 378.862 26.8504 378.443 27.366C378.038 27.8676 377.731 28.4459 377.522 29.1008C377.312 29.7418 377.208 30.4176 377.208 31.1282C377.208 31.8806 377.326 32.5843 377.564 33.2392C377.801 33.8941 378.136 34.4724 378.568 34.974C379.001 35.4617 379.51 35.8449 380.097 36.1235C380.683 36.4022 381.318 36.5416 382.002 36.5416C382.811 36.5416 383.579 36.3395 384.304 35.9354C385.044 35.5174 385.735 34.8974 386.377 34.0752V36.458C385.079 37.921 383.558 38.6526 381.813 38.6526ZM386.146 32.7794H383.027V31.0446H388.114V38.5481H386.146V32.7794Z" fill="white"/>
<path d="M396.65 29.6024C395.757 29.6163 394.961 29.8184 394.263 30.2085C393.58 30.5987 393.091 31.1491 392.798 31.8597V38.5481H390.495V27.6168H392.631V30.0622C393.007 29.3098 393.503 28.7106 394.117 28.2647C394.731 27.8049 395.38 27.5541 396.064 27.5123C396.203 27.5123 396.315 27.5123 396.399 27.5123C396.496 27.5123 396.58 27.5193 396.65 27.5332V29.6024Z" fill="white"/>
<path d="M397.509 35.3502C397.509 34.6535 397.704 34.0474 398.095 33.5318C398.5 33.0023 399.051 32.5982 399.749 32.3195C400.447 32.0269 401.256 31.8806 402.177 31.8806C402.666 31.8806 403.161 31.9155 403.664 31.9851C404.18 32.0548 404.633 32.1663 405.024 32.3195V31.6298C405.024 30.8634 404.794 30.2643 404.333 29.8323C403.873 29.4004 403.21 29.1844 402.345 29.1844C401.731 29.1844 401.152 29.2959 400.607 29.5188C400.063 29.7278 399.484 30.0274 398.87 30.4176L398.095 28.8709C398.821 28.3832 399.547 28.0209 400.272 27.784C401.012 27.5471 401.787 27.4287 402.596 27.4287C404.061 27.4287 405.213 27.8189 406.05 28.5992C406.901 29.3655 407.327 30.4594 407.327 31.8806V35.9563C407.327 36.2211 407.369 36.4092 407.453 36.5207C407.55 36.6321 407.711 36.6948 407.934 36.7088V38.5481C407.725 38.5899 407.536 38.6177 407.369 38.6317C407.201 38.6456 407.062 38.6526 406.95 38.6526C406.462 38.6526 406.092 38.5341 405.841 38.2973C405.589 38.0604 405.443 37.7817 405.401 37.4612L405.338 36.8342C404.864 37.4473 404.257 37.921 403.517 38.2555C402.777 38.5899 402.031 38.7571 401.277 38.7571C400.551 38.7571 399.903 38.6108 399.33 38.3182C398.758 38.0116 398.312 37.6006 397.991 37.085C397.67 36.5694 397.509 35.9912 397.509 35.3502ZM404.48 36.019C404.647 35.8379 404.78 35.6568 404.878 35.4756C404.975 35.2945 405.024 35.1342 405.024 34.9949V33.7408C404.633 33.5876 404.222 33.4761 403.789 33.4064C403.357 33.3228 402.931 33.281 402.512 33.281C401.675 33.281 400.991 33.4482 400.461 33.7826C399.944 34.117 399.686 34.5769 399.686 35.1621C399.686 35.4826 399.77 35.7891 399.937 36.0817C400.119 36.3744 400.37 36.6112 400.691 36.7924C401.026 36.9735 401.438 37.0641 401.926 37.0641C402.428 37.0641 402.91 36.9666 403.371 36.7715C403.831 36.5764 404.201 36.3256 404.48 36.019Z" fill="white"/>
<path d="M409.43 33.0929C409.43 32.0478 409.639 31.1003 410.058 30.2503C410.49 29.3864 411.077 28.7037 411.816 28.202C412.556 27.6865 413.407 27.4287 414.37 27.4287C415.207 27.4287 415.961 27.6447 416.631 28.0766C417.315 28.5086 417.845 29.0451 418.222 29.686V23.2903H420.525V35.9563C420.525 36.2211 420.573 36.4092 420.671 36.5207C420.769 36.6321 420.929 36.6948 421.153 36.7088V38.5481C420.72 38.6177 420.385 38.6526 420.148 38.6526C419.715 38.6526 419.345 38.5272 419.038 38.2764C418.745 38.0255 418.592 37.726 418.578 37.3776L418.557 36.5625C418.138 37.2592 417.573 37.8026 416.861 38.1928C416.15 38.569 415.41 38.7571 414.642 38.7571C413.889 38.7571 413.191 38.6108 412.549 38.3182C411.921 38.0255 411.37 37.6145 410.895 37.085C410.435 36.5555 410.072 35.9494 409.807 35.2666C409.555 34.5838 409.43 33.8593 409.43 33.0929ZM418.222 34.6187V31.7552C418.068 31.3093 417.817 30.9122 417.468 30.5639C417.133 30.2016 416.75 29.9159 416.317 29.7069C415.898 29.4979 415.48 29.3934 415.061 29.3934C414.573 29.3934 414.126 29.4979 413.721 29.7069C413.33 29.9159 412.989 30.1946 412.695 30.543C412.416 30.8913 412.2 31.2884 412.047 31.7343C411.893 32.1802 411.816 32.647 411.816 33.1347C411.816 33.6363 411.9 34.1101 412.067 34.556C412.235 34.9879 412.472 35.3781 412.779 35.7264C413.1 36.0608 413.463 36.3256 413.868 36.5207C414.286 36.7018 414.74 36.7924 415.228 36.7924C415.535 36.7924 415.842 36.7366 416.15 36.6252C416.47 36.5137 416.771 36.3604 417.05 36.1653C417.343 35.9703 417.587 35.7404 417.782 35.4756C417.992 35.2109 418.138 34.9252 418.222 34.6187Z" fill="white"/>
<path d="M428.369 38.7571C427.504 38.7571 426.729 38.6108 426.045 38.3182C425.361 38.0116 424.768 37.5936 424.266 37.0641C423.777 36.5346 423.401 35.9354 423.135 35.2666C422.87 34.5838 422.738 33.8593 422.738 33.0929C422.738 32.3265 422.87 31.6019 423.135 30.9192C423.401 30.2364 423.777 29.6372 424.266 29.1217C424.768 28.5922 425.361 28.1811 426.045 27.8885C426.743 27.582 427.518 27.4287 428.369 27.4287C429.22 27.4287 429.988 27.582 430.672 27.8885C431.369 28.1811 431.962 28.5922 432.451 29.1217C432.953 29.6372 433.337 30.2364 433.602 30.9192C433.867 31.6019 434 32.3265 434 33.0929C434 33.8593 433.867 34.5838 433.602 35.2666C433.337 35.9354 432.953 36.5346 432.451 37.0641C431.962 37.5936 431.369 38.0116 430.672 38.3182C429.988 38.6108 429.22 38.7571 428.369 38.7571ZM425.103 33.1138C425.103 33.8105 425.25 34.4375 425.543 34.9949C425.836 35.5522 426.227 35.9912 426.715 36.3117C427.204 36.6321 427.755 36.7924 428.369 36.7924C428.969 36.7924 429.513 36.6321 430.002 36.3117C430.504 35.9772 430.902 35.5313 431.195 34.974C431.488 34.4027 431.634 33.7757 431.634 33.0929C431.634 32.3962 431.488 31.7692 431.195 31.2118C430.902 30.6544 430.504 30.2155 430.002 29.895C429.513 29.5606 428.969 29.3934 428.369 29.3934C427.755 29.3934 427.204 29.5606 426.715 29.895C426.227 30.2294 425.836 30.6753 425.543 31.2327C425.25 31.7761 425.103 32.4032 425.103 33.1138Z" fill="white"/>
<defs>
<clipPath id="clip0_5_147">
<rect width="183" height="46" fill="white"/>
</clipPath>
</defs>
</svg>
